<svg width="20" height="20" viewBox="0 0 20 20" fill="none" xmlns="http://www.w3.org/2000/svg">
<path d="M10.204 3.86667C12.1201 3.86667 13.4126 4.67778 14.1496 5.35556L17.0294 2.6C15.2607 0.98889 12.9591 0 10.204 0C6.2131 0 2.76638 2.24445 1.08838 5.51112L4.3877 8.02223C5.21536 5.61112 7.50561 3.86667 10.204 3.86667V3.86667Z" fill="#F25022"/>
<path d="M20 10.2222C20 9.39998 19.932 8.79998 19.7846 8.17776H10.2041V11.8889H15.8277C15.7143 12.8111 15.1021 14.2 13.7415 15.1333L16.9615 17.5778C18.8889 15.8333 20 13.2667 20 10.2222V10.2222Z" fill="#4285F4"/>
<path d="M4.39909 11.9778C4.18367 11.3556 4.05896 10.6889 4.05896 10C4.05896 9.31113 4.18367 8.64447 4.38776 8.02224L1.08844 5.51113C0.396825 6.86669 0 8.38891 0 10C0 11.6111 0.396825 13.1334 1.08844 14.4889L4.39909 11.9778V11.9778Z" fill="#FBBC05"/>
<path d="M10.2042 20C12.9593 20 15.2722 19.1111 16.9615 17.5778L13.7416 15.1333C12.8799 15.7222 11.7234 16.1333 10.2042 16.1333C7.50575 16.1333 5.2155 14.3889 4.39917 11.9778L1.09985 14.4889C2.77786 17.7556 6.21323 20 10.2042 20V20Z" fill="#34A853"/>
</svg>
