<svg width="70" height="70" viewBox="0 0 70 70" fill="none" xmlns="http://www.w3.org/2000/svg">
<g clip-path="url(#clip0_102_5)">
<g filter="url(#filter0_b_102_5)">
<rect width="70" height="70" rx="9" fill="white" fill-opacity="0.15"/>
<rect x="0.5" y="0.5" width="69" height="69" rx="8.5" stroke="url(#paint0_linear_102_5)"/>
</g>
<g clip-path="url(#clip1_102_5)">
<path d="M55.8624 58.2932L45.1414 39.5027L24.1559 53.0263L55.8624 58.2932ZM59 19.4141L46.4169 38.3298C46.2374 38.5999 46.0066 38.8137 46.2579 39.2275L57.1294 57.012L59 19.4141ZM16.5272 35.5743C16.6728 35.7125 17.0325 35.7906 17.2018 35.7085C17.2018 35.7085 23.171 32.8171 26.0795 31.2337C27.0285 30.7173 28.5759 29.0433 28.5759 29.0433C28.5759 29.0433 33.986 24.0727 36.6877 21.5848C36.8535 21.4326 37.0484 21.2839 37.1476 21.0924L40.0596 15.3283L36.6364 14.0596C36.4842 14.0066 36.2414 14.1126 36.0755 14.2049C33.4594 15.6652 30.7954 17.0485 28.263 18.6421C26.996 19.4389 19.4451 26.6221 19.4451 26.6221C18.9715 27.0684 18.5406 27.5763 18.173 28.1132L14.536 33.5386C14.536 33.5386 15.8563 34.9371 16.5272 35.5743ZM27.3978 33.1488L22.9265 52.0379L43.9342 38.5025L27.3978 33.1488ZM57.0456 19.6663L39.1909 22.6484L45.2508 37.3876L57.0456 19.6663ZM27.6458 31.8698L43.8538 37.1311L37.8589 22.5321L27.6458 31.8698ZM16.7504 39.218C16.7504 39.218 12.9698 48.2574 11.0787 52.7783C14.7139 52.6706 18.238 52.5663 21.8817 52.4586C20.1701 48.0436 18.4927 43.7151 16.7504 39.218ZM22.0763 49.501L26.0812 32.9316L17.4138 37.4372L22.0763 49.501ZM54.8655 18.7926C53.1402 18.336 42.2465 15.4685 42.2465 15.4685C41.937 15.3865 41.713 15.3318 41.5301 15.7062L38.8609 21.0718L38.8182 21.3369L54.8621 18.9054L54.8655 18.7926ZM44.8575 14.7094L58.9179 18.5993L56.5942 11.9787L44.878 14.576L44.8575 14.7094ZM23.2018 54.0616C21.4594 53.8615 19.6726 54.0471 17.9062 54.0761C16.4545 54.1018 15.0046 54.1565 13.5546 54.2009C13.4041 54.2061 13.2553 54.2351 13.1066 54.3959L49.0895 57.7233L49.1134 57.5626C49.1134 57.5626 41.4241 56.5127 37.5785 55.9878C32.7874 55.3329 28.0048 54.6156 23.2018 54.0616ZM11.3155 48.6412L15.9518 37.8818C16.1074 37.5227 16.0955 37.2782 15.7911 36.9892L13.8299 34.9681L11 48.9396L11.1043 48.9892L11.3155 48.6412ZM41.778 13.7629L50.1616 11.835L50.1359 11.7068L38.8404 13.2269C39.9005 13.6903 40.7179 14.0348 41.778 13.7629Z" fill="#D14748"/>
</g>
</g>
<defs>
<filter id="filter0_b_102_5" x="-80" y="-80" width="230" height="230" filterUnits="userSpaceOnUse" color-interpolation-filters="sRGB">
<feFlood flood-opacity="0" result="BackgroundImageFix"/>
<feGaussianBlur in="BackgroundImageFix" stdDeviation="40"/>
<feComposite in2="SourceAlpha" operator="in" result="effect1_backgroundBlur_102_5"/>
<feBlend mode="normal" in="SourceGraphic" in2="effect1_backgroundBlur_102_5" result="shape"/>
</filter>
<linearGradient id="paint0_linear_102_5" x1="25" y1="-35.5" x2="101.379" y2="9.46526" gradientUnits="userSpaceOnUse">
<stop stop-color="#D14748" stop-opacity="0.59"/>
<stop offset="1" stop-color="#D14748" stop-opacity="0"/>
</linearGradient>
<clipPath id="clip0_102_5">
<rect width="70" height="70" fill="white"/>
</clipPath>
<clipPath id="clip1_102_5">
<rect width="48" height="48" fill="white" transform="translate(11 11)"/>
</clipPath>
</defs>
</svg>
