<svg width="70" height="70" viewBox="0 0 70 70" fill="none" xmlns="http://www.w3.org/2000/svg">
<g clip-path="url(#clip0_102_5)">
<g filter="url(#filter0_b_102_5)">
<rect width="70" height="70" rx="9" fill="white" fill-opacity="0.15"/>
<rect x="0.5" y="0.5" width="69" height="69" rx="8.5" stroke="url(#paint0_linear_102_5)"/>
</g>
<path d="M55.7 34.493L53.939 33.404C53.939 33.233 53.909 33.062 53.888 32.891L55.388 31.478C55.4652 31.4085 55.523 31.32 55.5557 31.2214C55.5884 31.1228 55.595 31.0174 55.5747 30.9155C55.5544 30.8135 55.508 30.7186 55.4401 30.64C55.3721 30.5614 55.2849 30.5018 55.187 30.467L53.252 29.744C53.204 29.576 53.153 29.411 53.102 29.243L54.302 27.566C54.3655 27.4811 54.4054 27.3808 54.4175 27.2754C54.4296 27.17 54.4136 27.0632 54.371 26.966C54.3333 26.8724 54.2726 26.7897 54.1945 26.7257C54.1163 26.6617 54.0233 26.6185 53.924 26.6L51.884 26.267C51.806 26.111 51.722 25.967 51.638 25.808L52.496 23.924C52.5409 23.8302 52.5606 23.7262 52.5532 23.6224C52.5458 23.5186 52.5115 23.4185 52.4537 23.332C52.3959 23.2454 52.3166 23.1754 52.2235 23.1288C52.1305 23.0822 52.0269 23.0605 51.923 23.066L49.853 23.138C49.745 23.006 49.637 22.871 49.526 22.739L50 20.738C50.0273 20.637 50.0276 20.5306 50.001 20.4294C49.9744 20.3282 49.9218 20.2357 49.8484 20.1611C49.775 20.0865 49.6834 20.0324 49.5826 20.0041C49.4819 19.9759 49.3755 19.9745 49.274 20L47.258 20.477C47.126 20.372 47 20.264 46.859 20.156L46.931 18.086C46.9354 17.983 46.9131 17.8805 46.8664 17.7885C46.8196 17.6966 46.7499 17.6182 46.664 17.561C46.5771 17.5009 46.4758 17.4648 46.3705 17.4564C46.2651 17.4479 46.1594 17.4675 46.064 17.513L44.18 18.371L43.721 18.125L43.4 16.085C43.3836 15.9827 43.341 15.8864 43.2764 15.8054C43.2117 15.7245 43.1272 15.6616 43.031 15.623C42.9338 15.5805 42.8271 15.5644 42.7217 15.5766C42.6163 15.5887 42.516 15.6285 42.431 15.692L40.754 16.892L40.256 16.742L39.551 14.81C39.5173 14.7115 39.4584 14.6234 39.3803 14.5544C39.3021 14.4855 39.2074 14.4381 39.1054 14.4169C39.0033 14.3957 38.8975 14.4014 38.7984 14.4336C38.6993 14.4657 38.6102 14.5231 38.54 14.6L37.127 16.115L36.614 16.073L35.522 14.3C35.4689 14.2105 35.3934 14.1363 35.3029 14.0848C35.2124 14.0333 35.1101 14.0062 35.006 14.0062C34.9019 14.0062 34.7996 14.0333 34.7091 14.0848C34.6186 14.1363 34.5431 14.2105 34.49 14.3L33.401 16.061L32.9 16.124L31.475 14.6C31.4054 14.5229 31.317 14.4651 31.2184 14.4324C31.1197 14.3997 31.0143 14.3931 30.9124 14.4134C30.8105 14.4336 30.7156 14.48 30.637 14.548C30.5584 14.6159 30.4988 14.7031 30.464 14.801L29.738 16.736L29.24 16.886L27.563 15.686C27.4798 15.6236 27.3817 15.5838 27.2785 15.5706C27.1753 15.5575 27.0704 15.5714 26.9742 15.611C26.8779 15.6507 26.7937 15.7147 26.7297 15.7967C26.6656 15.8788 26.6241 15.9761 26.609 16.079L26.276 18.119C26.126 18.2 25.97 18.287 25.82 18.371L23.936 17.513C23.8406 17.4675 23.7349 17.4479 23.6295 17.4564C23.5242 17.4648 23.4229 17.5009 23.336 17.561C23.2501 17.6182 23.1804 17.6966 23.1337 17.7885C23.0869 17.8805 23.0646 17.983 23.069 18.086L23.141 20.156C23.009 20.264 22.874 20.372 22.742 20.483L20.735 20C20.6329 19.9725 20.5254 19.9724 20.4233 19.9998C20.3212 20.0271 20.2281 20.081 20.1535 20.1559C20.0789 20.2308 20.0254 20.3241 19.9985 20.4263C19.9715 20.5286 19.972 20.6361 20 20.738L20.483 22.757C20.372 22.889 20.264 23.018 20.156 23.156L18.086 23.084C17.9821 23.0785 17.8785 23.1002 17.7855 23.1468C17.6924 23.1934 17.6131 23.2634 17.5553 23.35C17.4975 23.4365 17.4633 23.5366 17.4558 23.6404C17.4484 23.7442 17.4681 23.8482 17.513 23.942L18.371 25.82C18.287 25.97 18.206 26.12 18.125 26.279L16.085 26.6C15.982 26.6151 15.8847 26.6567 15.8027 26.7207C15.7206 26.7847 15.6566 26.869 15.617 26.9652C15.5774 27.0614 15.5634 27.1663 15.5766 27.2696C15.5897 27.3728 15.6295 27.4708 15.692 27.554L16.892 29.231C16.841 29.396 16.79 29.564 16.742 29.732L14.81 30.467C14.7121 30.5018 14.6249 30.5614 14.5569 30.64C14.489 30.7186 14.4426 30.8135 14.4223 30.9155C14.4021 31.0174 14.4086 31.1228 14.4413 31.2214C14.4741 31.32 14.5318 31.4085 14.609 31.478L16.124 32.9C16.1 33.062 16.1 33.233 16.073 33.404L14.3 34.493C14.2105 34.5462 14.1363 34.6217 14.0848 34.7122C14.0333 34.8026 14.0062 34.9049 14.0062 35.009C14.0062 35.1132 14.0333 35.2155 14.0848 35.3059C14.1363 35.3964 14.2105 35.4719 14.3 35.525L16.073 36.614C16.1 36.8 16.1 36.959 16.124 37.127L14.6 38.54C14.5228 38.6096 14.4651 38.6981 14.4323 38.7967C14.3996 38.8953 14.3931 39.0007 14.4133 39.1026C14.4336 39.2046 14.48 39.2995 14.5479 39.3781C14.6159 39.4567 14.7031 39.5163 14.801 39.551L16.745 40.277C16.793 40.445 16.844 40.613 16.895 40.778L15.695 42.455C15.6342 42.5384 15.5959 42.636 15.5838 42.7385C15.5717 42.841 15.5862 42.9448 15.626 43.04C15.665 43.1357 15.728 43.2196 15.809 43.2837C15.8899 43.3478 15.986 43.39 16.088 43.406L18.128 43.739C18.206 43.895 18.29 44.039 18.374 44.198L17.516 46.079C17.4711 46.1729 17.4514 46.2769 17.4588 46.3807C17.4663 46.4845 17.5005 46.5846 17.5583 46.6711C17.6161 46.7576 17.6954 46.8277 17.7885 46.8743C17.8815 46.9209 17.9851 46.9425 18.089 46.937L20.159 46.865C20.267 47 20.375 47.132 20.486 47.264L20 49.277C19.9753 49.378 19.9772 49.4837 20.0056 49.5836C20.0341 49.6836 20.0879 49.7745 20.162 49.8474C20.2361 49.9203 20.3279 49.9727 20.4284 49.9995C20.5288 50.0262 20.6345 50.0264 20.735 50L22.754 49.526L23.153 49.853L23.081 51.926C23.0761 52.0297 23.0981 52.1329 23.1449 52.2255C23.1918 52.3181 23.2619 52.397 23.3483 52.4544C23.4348 52.5119 23.5346 52.5459 23.6382 52.5532C23.7417 52.5605 23.8454 52.5408 23.939 52.496L25.823 51.638C25.973 51.722 26.123 51.803 26.282 51.884L26.6 53.933C26.6161 54.035 26.6582 54.1312 26.7224 54.2121C26.7865 54.293 26.8704 54.356 26.966 54.395C27.0633 54.4366 27.1696 54.4523 27.2747 54.4407C27.3798 54.4292 27.4801 54.3907 27.566 54.329L29.243 53.129L29.744 53.279L30.47 55.214C30.5048 55.312 30.5644 55.3992 30.643 55.4671C30.7216 55.5351 30.8165 55.5815 30.9184 55.6017C31.0203 55.622 31.1257 55.6154 31.2244 55.5827C31.323 55.55 31.4114 55.4922 31.481 55.415L32.9 53.9C33.071 53.921 33.242 53.936 33.416 53.951L34.496 55.7C34.5493 55.7889 34.6247 55.8624 34.7149 55.9135C34.805 55.9645 34.9069 55.9914 35.0105 55.9914C35.1141 55.9914 35.216 55.9645 35.3061 55.9135C35.3963 55.8624 35.4717 55.7889 35.525 55.7L36.614 53.939L37.127 53.9L38.54 55.4C38.6096 55.4772 38.698 55.535 38.7966 55.5677C38.8953 55.6004 39.0007 55.607 39.1026 55.5867C39.2045 55.5665 39.2994 55.5201 39.378 55.4521C39.4566 55.3842 39.5162 55.297 39.551 55.199L40.277 53.264L40.778 53.114L42.455 54.314C42.5403 54.3771 42.6407 54.4164 42.7461 54.428C42.8515 54.4396 42.9581 54.423 43.055 54.38C43.1506 54.341 43.2345 54.278 43.2986 54.1971C43.3628 54.1162 43.4049 54.02 43.421 53.918L43.754 51.878L44.213 51.632L46.097 52.49C46.1905 52.5341 46.2939 52.5532 46.397 52.5456C46.5001 52.5379 46.5994 52.5038 46.6854 52.4465C46.7715 52.3891 46.8412 52.3105 46.8879 52.2183C46.9346 52.1261 46.9567 52.0233 46.952 51.92L46.88 49.847L47.279 49.52L49.28 50C49.3805 50.0241 49.4854 50.0219 49.5848 49.9935C49.6841 49.9651 49.7744 49.9116 49.847 49.838C49.918 49.7652 49.9692 49.6755 49.996 49.5773C50.0228 49.4792 50.0241 49.3759 50 49.277L49.526 47.258C49.637 47.126 49.745 46.997 49.853 46.859L51.923 46.931C52.0261 46.9354 52.1286 46.9132 52.2205 46.8664C52.3125 46.8196 52.3908 46.7499 52.448 46.664C52.5077 46.5769 52.5432 46.4755 52.5512 46.3701C52.5591 46.2647 52.539 46.1592 52.493 46.064L51.635 44.183C51.716 44.033 51.8 43.883 51.881 43.724L53.921 43.391C54.0235 43.3757 54.1202 43.3341 54.2019 43.2703C54.2835 43.2064 54.3472 43.1226 54.3867 43.0268C54.4263 42.931 54.4404 42.8267 54.4277 42.7238C54.4149 42.621 54.3758 42.5232 54.314 42.44L53.114 40.763C53.165 40.598 53.216 40.43 53.264 40.262L55.199 39.539C55.2959 39.5032 55.3818 39.4429 55.4486 39.3641C55.5153 39.2852 55.5606 39.1905 55.58 39.089C55.5986 38.9898 55.5919 38.8874 55.5604 38.7915C55.529 38.6955 55.4738 38.609 55.4 38.54L53.9 37.127C53.918 36.956 53.933 36.785 53.951 36.614L55.7 35.525C55.7895 35.4719 55.8637 35.3964 55.9152 35.3059C55.9667 35.2155 55.9938 35.1132 55.9938 35.009C55.9938 34.9049 55.9667 34.8026 55.9152 34.7122C55.8637 34.6217 55.7895 34.5462 55.7 34.493ZM43.904 49.1C43.6624 49.0487 43.4414 48.9269 43.269 48.7499C43.0967 48.5729 42.9808 48.3487 42.9359 48.1058C42.8911 47.8629 42.9194 47.6121 43.0171 47.3853C43.1149 47.1584 43.2778 46.9657 43.4852 46.8315C43.6926 46.6973 43.9352 46.6276 44.1822 46.6314C44.4292 46.6352 44.6695 46.7121 44.8727 46.8526C45.076 46.993 45.2329 47.1906 45.3238 47.4204C45.4146 47.6501 45.4352 47.9016 45.383 48.143C45.3125 48.4654 45.1175 48.7468 44.8405 48.926C44.5635 49.1053 44.2269 49.1678 43.904 49.1ZM43.304 45.053C43.1582 45.0218 43.0077 45.0196 42.8611 45.0465C42.7145 45.0735 42.5746 45.1291 42.4495 45.2102C42.3244 45.2913 42.2165 45.3963 42.132 45.5191C42.0475 45.6419 41.988 45.7802 41.957 45.926L41.33 48.845C39.3193 49.7555 37.1363 50.2226 34.9291 50.2149C32.7219 50.2071 30.5422 49.7246 28.538 48.8L27.911 45.881C27.8477 45.5869 27.6703 45.3299 27.4179 45.1663C27.1654 45.0026 26.8583 44.9457 26.564 45.008L23.987 45.5601C23.5086 45.0672 23.0637 44.5431 22.655 43.991H35.195C35.336 43.991 35.432 43.964 35.432 43.835V39.389C35.432 39.26 35.336 39.233 35.195 39.233H31.526V36.422H35.492C36.0811 36.4274 36.6493 36.6413 37.0958 37.0257C37.5423 37.4101 37.8382 37.9403 37.931 38.522C38.087 39.14 38.435 41.153 38.672 41.798C38.8279 42.3173 39.1131 42.7884 39.5009 43.1673C39.8886 43.5461 40.3663 43.8203 40.889 43.964H47.138C47.2135 43.9636 47.2888 43.9566 47.363 43.943C46.9304 44.5322 46.4561 45.0896 45.944 45.611L43.307 45.044L43.304 45.053ZM25.964 49.04C25.7227 49.0921 25.4713 49.0714 25.2418 48.9806C25.0122 48.8898 24.8147 48.7329 24.6743 48.5299C24.5339 48.3268 24.4569 48.0867 24.453 47.8398C24.4491 47.593 24.5185 47.3505 24.6524 47.1431C24.7863 46.9357 24.9788 46.7727 25.2054 46.6747C25.432 46.5767 25.6825 46.5481 25.9254 46.5925C26.1682 46.6369 26.3924 46.7523 26.5697 46.9242C26.7469 47.0961 26.8692 47.3167 26.921 47.558C26.9567 47.7186 26.9602 47.8847 26.9313 48.0467C26.9025 48.2086 26.8418 48.3632 26.7528 48.5016C26.6638 48.64 26.5483 48.7593 26.4129 48.8528C26.2775 48.9462 26.1249 49.0119 25.964 49.046V49.04ZM21.2 29.759C21.2993 29.9843 21.3295 30.2338 21.287 30.4763C21.2445 30.7187 21.1311 30.943 20.9611 31.121C20.7911 31.299 20.5722 31.4226 20.332 31.4762C20.0918 31.5299 19.8411 31.5111 19.6115 31.4223C19.382 31.3335 19.1839 31.1786 19.0424 30.9773C18.9008 30.776 18.822 30.5373 18.8161 30.2912C18.8102 30.0452 18.8773 29.8029 19.009 29.595C19.1407 29.387 19.331 29.2228 19.556 29.123C19.8584 28.9898 20.2013 28.9819 20.5095 29.1012C20.8177 29.2204 21.066 29.457 21.2 29.759ZM19.748 33.224L22.433 32.024C22.705 31.8997 22.9171 31.6731 23.0232 31.3935C23.1293 31.1138 23.121 30.8036 23 30.53L22.457 29.279H24.629V39.08H20.243C19.8492 37.7146 19.6473 36.3011 19.643 34.88C19.6433 34.3289 19.6724 33.7782 19.73 33.23L19.748 33.224ZM31.529 32.273V29.387H36.707C37.1484 29.3865 37.5766 29.5372 37.9205 29.8139C38.2644 30.0906 38.5031 30.4768 38.597 30.908C38.465 31.3817 38.1569 31.7869 37.7358 32.0407C37.3147 32.2945 36.8124 32.3776 36.332 32.273H31.529ZM50.345 34.871C50.345 35.255 50.331 35.634 50.303 36.008H48.725C48.6922 36.0065 48.6595 36.0124 48.6294 36.0254C48.5993 36.0384 48.5725 36.0581 48.5511 36.0829C48.5297 36.1078 48.5143 36.1372 48.5059 36.1689C48.4976 36.2007 48.4966 36.2339 48.503 36.266V36.992C48.5475 37.2557 48.5346 37.5259 48.4651 37.7841C48.3955 38.0424 48.2711 38.2825 48.1001 38.4882C47.9292 38.6939 47.7159 38.8602 47.4748 38.9758C47.2336 39.0914 46.9704 39.1536 46.703 39.158C46.3545 39.2224 45.9947 39.1778 45.6726 39.0301C45.3504 38.8825 45.0817 38.6391 44.903 38.333C44.8457 37.4855 44.5893 36.6635 44.1545 35.9337C43.7198 35.2039 43.119 34.587 42.401 34.133C43.2459 33.7245 43.976 33.1122 44.5253 32.3512C45.0747 31.5903 45.4261 30.7046 45.548 29.774C45.517 28.9529 45.2812 28.1525 44.8621 27.4457C44.4429 26.7389 43.8537 26.1481 43.148 25.727C42.1594 25.0884 41.0228 24.7154 39.848 24.644H23.57C25.8188 22.1267 28.8361 20.4224 32.153 19.796L34.073 21.8C34.2813 22.0172 34.5672 22.143 34.8681 22.1497C35.1689 22.1565 35.4602 22.0437 35.678 21.836L37.826 19.79C40.014 20.2014 42.0863 21.0836 43.8994 22.3755C45.7125 23.6675 47.2229 25.3383 48.326 27.272L46.859 30.59C46.7377 30.8658 46.7305 31.1784 46.839 31.4595C46.9475 31.7406 47.1629 31.9673 47.438 32.09L50.267 33.35C50.318 33.851 50.342 34.361 50.342 34.874L50.345 34.871ZM34.076 18.071C34.2544 17.9017 34.479 17.7889 34.7214 17.7471C34.9639 17.7053 35.2132 17.7362 35.4381 17.8359C35.663 17.9357 35.8533 18.0999 35.9849 18.3077C36.1166 18.5155 36.1837 18.7577 36.1778 19.0036C36.172 19.2495 36.0934 19.4882 35.952 19.6895C35.8106 19.8909 35.6127 20.0458 35.3834 20.1347C35.154 20.2237 34.9034 20.2427 34.6633 20.1893C34.4231 20.136 34.2042 20.0127 34.034 19.835C33.8083 19.5968 33.6857 19.2791 33.6931 18.951C33.7004 18.6229 33.8369 18.311 34.073 18.083L34.076 18.071ZM48.662 29.807C48.7625 29.5825 48.9272 29.3927 49.1354 29.2617C49.3436 29.1306 49.586 29.0642 49.8319 29.0708C50.0778 29.0774 50.3163 29.1568 50.5172 29.2988C50.718 29.4408 50.8724 29.6391 50.9606 29.8688C51.0489 30.0984 51.0671 30.349 51.0131 30.589C50.959 30.829 50.835 31.0476 50.6568 31.2172C50.4786 31.3868 50.2542 31.4998 50.0118 31.542C49.7694 31.5841 49.52 31.5535 49.295 31.454C48.9957 31.3195 48.7615 31.0724 48.643 30.7664C48.5246 30.4604 48.5314 30.1201 48.662 29.819V29.807Z" fill="#A72146"/>
</g>
<defs>
<filter id="filter0_b_102_5" x="-80" y="-80" width="230" height="230" filterUnits="userSpaceOnUse" color-interpolation-filters="sRGB">
<feFlood flood-opacity="0" result="BackgroundImageFix"/>
<feGaussianBlur in="BackgroundImageFix" stdDeviation="40"/>
<feComposite in2="SourceAlpha" operator="in" result="effect1_backgroundBlur_102_5"/>
<feBlend mode="normal" in="SourceGraphic" in2="effect1_backgroundBlur_102_5" result="shape"/>
</filter>
<linearGradient id="paint0_linear_102_5" x1="25" y1="-35.5" x2="101.379" y2="9.46526" gradientUnits="userSpaceOnUse">
<stop stop-color="#A72146" stop-opacity="0.59"/>
<stop offset="1" stop-color="#A72146" stop-opacity="0"/>
</linearGradient>
<clipPath id="clip0_102_5">
<rect width="70" height="70" fill="white"/>
</clipPath>
</defs>
</svg>
